<?xml version="1.0" encoding="UTF-8"?>
<svg version="1.1" xmlns="http://www.w3.org/2000/svg" width="366" height="591">
<path d="M0 0 C0.5249707 0.38655762 1.04994141 0.77311523 1.59082031 1.17138672 C9.09275314 6.71103893 16.21662086 12.59284189 23 19 C23.73605469 19.68320312 24.47210938 20.36640625 25.23046875 21.0703125 C56.04056375 50.62619125 76.11180861 94.77648414 77.26394653 137.43037415 C77.32659973 141.18320713 77.33101639 144.93426717 77.3125 148.6875 C77.31034485 149.47714142 77.3081897 150.26678284 77.30596924 151.08035278 C77.25274526 163.25833853 76.81383816 175.09996747 74 187 C73.70198486 188.267229 73.70198486 188.267229 73.39794922 189.56005859 C70.46970853 201.55597494 66.34156933 212.72150694 61.0234375 223.85009766 C60.0153331 225.96779025 59.03536716 228.09638972 58.0625 230.23046875 C45.83470477 256.91098496 30.77479733 282.04313571 14.62841797 306.51367188 C9.89330842 313.74341035 5.29738478 321.06444592 0.67138672 328.36425781 C-0.90247001 330.84619724 -2.48008065 333.32570792 -4.05859375 335.8046875 C-46.54995763 402.64400996 -79.99179728 470.98151007 -97.19726562 548.60791016 C-98.02661286 552.11245712 -98.98513121 555.54537344 -100 559 C-103.63 559 -107.26 559 -111 559 C-113.0066697 551.62157975 -114.96979658 544.24512348 -116.71875 536.80078125 C-130.16619803 479.91035288 -153.04034607 425.16979544 -183 375 C-183.99372921 373.31784987 -184.9872148 371.6355558 -185.98046875 369.953125 C-192.27374494 359.34105364 -198.79142079 348.87800807 -205.42285156 338.47460938 C-207.05284633 335.91708198 -208.679097 333.35720376 -210.3046875 330.796875 C-215.94197864 321.92297342 -221.59880495 313.06186529 -227.27514648 304.21289062 C-230.52342197 299.14617002 -233.76437269 294.07480603 -237 289 C-237.62962646 288.01362549 -237.62962646 288.01362549 -238.27197266 287.00732422 C-245.30524473 275.94393218 -251.6291801 264.45235007 -258 253 C-258.85513184 251.46666016 -258.85513184 251.46666016 -259.72753906 249.90234375 C-285.46090628 203.61446775 -297.90078628 153.99832442 -283.83203125 101.484375 C-282.71359579 97.59735341 -281.37939479 93.80243726 -280 90 C-279.56489273 88.71405278 -279.13132455 87.42758388 -278.69921875 86.140625 C-270.39576856 62.06061944 -256.10954179 41.63346859 -239 23 C-237.84757812 21.73929688 -237.84757812 21.73929688 -236.671875 20.453125 C-230.874015 14.39758233 -224.33933689 9.31906348 -217.67089844 4.26953125 C-216.19974338 3.15176294 -214.74318851 2.01483364 -213.2890625 0.875 C-154.26518304 -44.16476033 -59.50531906 -44.41827641 0 0 Z " fill="#F13D3D" transform="translate(289,32)"/>
<path d="M0 0 C0.5249707 0.38655762 1.04994141 0.77311523 1.59082031 1.17138672 C9.09275314 6.71103893 16.21662086 12.59284189 23 19 C23.73605469 19.68320312 24.47210938 20.36640625 25.23046875 21.0703125 C56.04056375 50.62619125 76.11180861 94.77648414 77.26394653 137.43037415 C77.32659973 141.18320713 77.33101639 144.93426717 77.3125 148.6875 C77.31034485 149.47714142 77.3081897 150.26678284 77.30596924 151.08035278 C77.25274526 163.25833853 76.81383816 175.09996747 74 187 C73.70198486 188.267229 73.70198486 188.267229 73.39794922 189.56005859 C70.46970853 201.55597494 66.34156933 212.72150694 61.0234375 223.85009766 C60.0153331 225.96779025 59.03536716 228.09638972 58.0625 230.23046875 C45.83470477 256.91098496 30.77479733 282.04313571 14.62841797 306.51367188 C9.89330842 313.74341035 5.29738478 321.06444592 0.67138672 328.36425781 C-0.90247001 330.84619724 -2.48008065 333.32570792 -4.05859375 335.8046875 C-46.54995763 402.64400996 -79.99179728 470.98151007 -97.19726562 548.60791016 C-98.02661286 552.11245712 -98.98513121 555.54537344 -100 559 C-103.63 559 -107.26 559 -111 559 C-113.0066697 551.62157975 -114.96979658 544.24512348 -116.71875 536.80078125 C-130.16619803 479.91035288 -153.04034607 425.16979544 -183 375 C-183.99372921 373.31784987 -184.9872148 371.6355558 -185.98046875 369.953125 C-192.27374494 359.34105364 -198.79142079 348.87800807 -205.42285156 338.47460938 C-207.05284633 335.91708198 -208.679097 333.35720376 -210.3046875 330.796875 C-215.94197864 321.92297342 -221.59880495 313.06186529 -227.27514648 304.21289062 C-230.52342197 299.14617002 -233.76437269 294.07480603 -237 289 C-237.62962646 288.01362549 -237.62962646 288.01362549 -238.27197266 287.00732422 C-245.30524473 275.94393218 -251.6291801 264.45235007 -258 253 C-258.85513184 251.46666016 -258.85513184 251.46666016 -259.72753906 249.90234375 C-285.46090628 203.61446775 -297.90078628 153.99832442 -283.83203125 101.484375 C-282.71359579 97.59735341 -281.37939479 93.80243726 -280 90 C-279.56489273 88.71405278 -279.13132455 87.42758388 -278.69921875 86.140625 C-270.39576856 62.06061944 -256.10954179 41.63346859 -239 23 C-237.84757812 21.73929688 -237.84757812 21.73929688 -236.671875 20.453125 C-230.874015 14.39758233 -224.33933689 9.31906348 -217.67089844 4.26953125 C-216.19974338 3.15176294 -214.74318851 2.01483364 -213.2890625 0.875 C-154.26518304 -44.16476033 -59.50531906 -44.41827641 0 0 Z M-234.12304688 36.95458984 C-238.48092338 41.70358689 -242.32446424 46.70251963 -246 52 C-246.3805957 52.54688477 -246.76119141 53.09376953 -247.15332031 53.65722656 C-253.34905715 62.65271058 -258.42593325 72.09076567 -263 82 C-263.53496094 83.1446875 -264.06992187 84.289375 -264.62109375 85.46875 C-280.47248676 122.02988504 -281.09093103 167.92153615 -267.1875 205.0625 C-263.64141224 213.98315288 -259.5140332 222.53596946 -255 231 C-254.50226074 231.94472168 -254.00452148 232.88944336 -253.49169922 233.86279297 C-242.70829646 254.31715167 -231.26140641 274.25346224 -218.57519531 293.58544922 C-215.37246774 298.49477589 -212.2205585 303.43687071 -209.0625 308.375 C-208.37526855 309.44951416 -207.68803711 310.52402832 -206.97998047 311.63110352 C-201.44563571 320.29107287 -195.92676047 328.9603336 -190.46533203 337.66650391 C-189.47368694 339.24566814 -188.4798064 340.82343045 -187.48388672 342.39990234 C-153.28758178 396.56469527 -121.53513269 456.33927217 -107.75390625 519.38671875 C-107.50511719 520.24910156 -107.25632813 521.11148438 -107 522 C-106.34 522.33 -105.68 522.66 -105 523 C-104.8047876 522.29319092 -104.6095752 521.58638184 -104.40844727 520.8581543 C-97.12093582 494.600716 -88.91985867 469.00165705 -78 444 C-77.52127441 442.89060059 -77.04254883 441.78120117 -76.54931641 440.63818359 C-70.62824624 426.92653626 -64.47170854 413.45004125 -57.28613281 400.35302734 C-55.93194669 397.87549396 -54.60139784 395.38621159 -53.2734375 392.89453125 C-41.75887269 371.39517134 -29.17476975 350.51841029 -16 330 C-14.73143 328.01714509 -13.46322167 326.03405878 -12.1953125 324.05078125 C-9.47827488 319.80228656 -6.75936484 315.55499872 -4.0390625 311.30859375 C1.99544375 301.88601498 8.01752272 292.45571645 14 283 C14.3909082 282.38302246 14.78181641 281.76604492 15.18457031 281.13037109 C17.50855002 277.45055505 19.76908086 273.73689744 22 270 C22.40299316 269.32936523 22.80598633 268.65873047 23.22119141 267.96777344 C40.36114373 239.27739419 57.65267402 208.33206406 63 175 C63.19078125 173.82953125 63.3815625 172.6590625 63.578125 171.453125 C66.64185908 145.20037104 64.35675239 116.74481679 55 92 C54.61521484 90.96504395 54.61521484 90.96504395 54.22265625 89.90917969 C45.98377213 68.04065832 33.32196936 48.69134914 17 32 C16.06788902 31.00756246 15.13691418 30.01405672 14.20703125 29.01953125 C-2.42864021 11.48739455 -23.30652978 -0.93065884 -46 -9 C-47.21945313 -9.44988281 -48.43890625 -9.89976563 -49.6953125 -10.36328125 C-57.95222188 -13.28508947 -66.09779554 -15.2751508 -74.73242188 -16.63525391 C-76.42992588 -16.90830203 -78.1234328 -17.20640447 -79.81445312 -17.51708984 C-88.65920357 -19.05358525 -97.30790399 -19.31906819 -106.25 -19.25 C-106.97777649 -19.24656586 -107.70555298 -19.24313171 -108.4553833 -19.23959351 C-157.92285977 -18.96589855 -200.32219903 1.22480154 -234.12304688 36.95458984 Z " fill="#020000" transform="translate(289,32)"/>
</svg>
