<?xml version="1.0" encoding="UTF-8"?>
<svg version="1.1" xmlns="http://www.w3.org/2000/svg" width="4060" height="2283">
<path d="M0 0 C1339.8 0 2679.6 0 4060 0 C4060 753.39 4060 1506.78 4060 2283 C2720.2 2283 1380.4 2283 0 2283 C0 1529.61 0 776.22 0 0 Z " fill="#EBF8FE" transform="translate(0,0)"/>
<path d="M0 0 C272.51017204 0 272.51017204 0 318.09204102 7.86694336 C320.69547689 8.31386938 323.30152776 8.74234614 325.90820312 9.16992188 C371.74624715 16.87458111 419.39676419 38.1323533 448 76 C448.80050781 77.04671875 449.60101562 78.0934375 450.42578125 79.171875 C465.45629069 99.24288926 475.02813678 121.74413369 481 146 C481.28488281 147.09570312 481.56976562 148.19140625 481.86328125 149.3203125 C484.74156984 161.33532229 485.76346077 173.72957855 487 186 C487.09933838 186.91128662 487.19867676 187.82257324 487.30102539 188.76147461 C488.2692595 198.59177638 488.20021352 208.44463659 488.1875 218.3125 C488.18656342 219.24719116 488.18562683 220.18188232 488.18466187 221.14489746 C488.13700513 243.07075034 486.83639053 263.76868 481 285 C480.7618457 285.86834473 480.52369141 286.73668945 480.27832031 287.63134766 C474.8362579 306.82234584 466.08714634 325.79895888 453 341 C452.23816406 341.886875 451.47632812 342.77375 450.69140625 343.6875 C448.50272018 346.16776482 446.26590019 348.59036734 444 351 C443.4740625 351.59039063 442.948125 352.18078125 442.40625 352.7890625 C423.7064258 372.9199957 394.60459848 385.22200143 368 390 C368.70793701 390.13986328 369.41587402 390.27972656 370.14526367 390.42382812 C401.24729153 396.67387621 429.7464524 407.00038617 454 428 C454.74515869 428.64243652 454.74515869 428.64243652 455.50537109 429.29785156 C492.01436583 460.99540367 507.94830922 508.51264048 512.73164368 555.39376831 C512.90020845 557.03084112 513.07605168 558.66719777 513.26243591 560.30233765 C513.93151115 566.38149033 514.15977798 572.37909755 514.16796875 578.4921875 C514.17224884 579.46779633 514.17652893 580.44340515 514.18093872 581.44857788 C514.19088383 584.59076588 514.19099851 587.73279931 514.1875 590.875 C514.18656342 591.95068237 514.18562683 593.02636475 514.18466187 594.13464355 C514.05646825 661.97495853 500.19577608 731.10313708 451 781 C344.82687503 886.14800515 99.05117809 843 0 843 C0 564.81 0 286.62 0 0 Z " fill="#FB4C02" transform="translate(1815,641)"/>
<path d="M0 0 C43.56 0 87.12 0 132 0 C136.29 10.23 140.58 20.46 145 31 C148.61753073 39.52409624 152.24051842 48.04564892 155.875 56.5625 C156.8640289 58.88212027 157.85295851 61.20178288 158.84179688 63.52148438 C160.88210914 68.30761565 162.92283428 73.09357054 164.96386719 77.87939453 C169.33688072 88.13418292 173.70461543 98.39121922 178.0725708 108.64816284 C180.46481407 114.26554119 182.85742634 119.88276237 185.25 125.5 C186.20833509 127.74999925 187.16666842 129.99999925 188.125 132.25 C188.599375 133.36375 189.07375 134.4775 189.5625 135.625 C239.87499995 253.74999987 239.87499995 253.74999987 241.31240845 257.12478638 C242.27104568 259.375499 243.22968419 261.62621107 244.18832397 263.87692261 C246.57951808 269.49101507 248.97069024 275.10511688 251.36181641 280.71923828 C255.72955662 290.97418771 260.09747833 301.22905969 264.46618652 311.4835968 C274.60787095 335.28891302 284.74700076 359.09528818 294.86279297 382.91162109 C295.19111115 383.68452988 295.51942932 384.45743866 295.85769653 385.25376892 C296.45698882 386.66466167 297.05618128 388.07559683 297.65524292 389.48658752 C299.4284649 393.66139198 301.21324861 397.83091342 303 402 C303.33 269.34 303.66 136.68 304 0 C354.82 0 405.64 0 458 0 C458 278.19 458 556.38 458 843 C416.42 843 374.84 843 332 843 C325.73 827.16 319.46 811.32 313 795 C309.16873886 785.32359348 309.16873886 785.32359348 305.33740234 775.6472168 C298.40118555 758.12864429 291.47267597 740.60706431 284.55712891 723.08032227 C279.91773579 711.32254166 275.27269387 699.56700181 270.625 687.8125 C270.27131348 686.91797119 269.91762695 686.02344238 269.55322266 685.10180664 C267.03562768 678.73448006 264.51783803 672.36723047 262 666 C259.12486512 658.72921999 256.24983124 651.45840007 253.375 644.1875 C253.02066895 643.29135986 252.66633789 642.39521973 252.30126953 641.47192383 C247.10143381 628.32058375 241.90775656 615.16682444 236.71722412 602.0118103 C231.32130102 588.33731691 225.91206282 574.66811265 220.5 561 C214.7844187 546.56535436 209.07315123 532.12903578 203.375 517.6875 C198.48576202 505.29618452 193.59287498 492.90632223 188.69488525 480.51846313 C187.63358043 477.83420169 186.57239687 475.14989234 185.51123047 472.46557617 C182.14035601 463.93916401 178.7681461 455.41328373 175.39291382 446.88859558 C173.80960656 442.88946533 172.22688763 438.89010238 170.64422607 434.89071655 C169.88577519 432.97460349 169.12703024 431.0586068 168.36798096 429.14273071 C167.31751671 426.49127174 166.2680284 423.83942843 165.21875 421.1875 C164.90606171 420.39901169 164.59337341 419.61052338 164.27120972 418.79814148 C163.11800695 415.88135893 161.99206387 412.97619162 161 410 C160.67 552.89 160.34 695.78 160 843 C107.2 843 54.4 843 0 843 C0 564.81 0 286.62 0 0 Z " fill="#FB4C02" transform="translate(1127,641)"/>
<path d="M0 0 C58.88000912 -0.86226672 114.27969966 8.53040745 158.37060547 50.31982422 C187.45508778 78.71663449 204.07878441 118.79019282 212.17919922 158.06201172 C212.35402832 158.89394043 212.52885742 159.72586914 212.70898438 160.58300781 C218.04464531 186.4112072 220.77859929 212.70875287 221.17919922 239.06201172 C181.1182709 244.89351791 181.1182709 244.89351791 161.74169922 247.31201172 C160.53964844 247.46250977 159.33759766 247.61300781 158.09912109 247.76806641 C152.33455002 248.47552204 146.56808082 249.12998121 140.78993225 249.71418762 C126.21578638 251.19398546 111.70734336 253.17385038 97.1875 255.10571289 C93.6564725 255.57458389 90.12490094 256.03918044 86.59326172 256.50341797 C85.01153671 256.71593956 85.01153671 256.71593956 83.39785767 256.93275452 C76.00570318 257.9022144 68.61699193 258.55544451 61.17919922 259.06201172 C61.13574875 258.40485168 61.09229828 257.74769165 61.04753113 257.07061768 C60.58662128 250.12467072 60.11397132 243.17958827 59.63500977 236.23486328 C59.45859867 233.65563348 59.28501348 231.07620856 59.11450195 228.49658203 C57.46473782 183.84098345 57.46473782 183.84098345 36.17919922 146.06201172 C25.70533907 137.49468371 12.31238478 135.92745026 -0.74365234 136.84326172 C-10.48339045 137.86897932 -18.74897763 142.40354948 -25.82080078 149.06201172 C-38.35889559 164.70500335 -43.05392429 184.16105477 -43.07080078 203.74951172 C-43.07147552 204.44730743 -43.07215027 205.14510315 -43.07284546 205.86404419 C-43.05597896 216.83499295 -42.52951085 227.38980071 -39.82080078 238.06201172 C-39.65451172 238.73151855 -39.48822266 239.40102539 -39.31689453 240.09082031 C-35.57597873 254.60072428 -29.06492969 268.24815295 -19.82080078 280.06201172 C-19.36576172 280.64418457 -18.91072266 281.22635742 -18.44189453 281.82617188 C-7.36031513 295.92259273 4.78485832 308.7480148 17.42919922 321.43701172 C17.94898346 321.95956543 18.4687677 322.48211914 19.00430298 323.02050781 C24.88277973 328.92182643 30.83849458 334.65338138 37.17919922 340.06201172 C38.78688294 341.51646689 40.39159636 342.97422067 41.99169922 344.43701172 C45.39003474 347.50947945 48.85510445 350.44643794 52.42919922 353.31201172 C58.1936115 357.97260037 63.56771875 362.99980453 68.97216797 368.06591797 C73.64313242 372.44317886 78.47667462 376.61344062 83.35107422 380.76123047 C84.54406236 381.77782928 85.73676127 382.79476759 86.92919922 383.81201172 C87.83472534 384.58424072 87.83472534 384.58424072 88.75854492 385.37207031 C92.70404301 388.75302387 96.56057577 392.2128428 100.36669922 395.74951172 C104.12053332 399.2284312 107.9392321 402.54436619 111.92919922 405.74951172 C115.98685075 409.01542636 119.67908795 412.44836382 123.30419922 416.18310547 C125.09157181 417.97420175 126.93748085 419.61369531 128.86669922 421.24951172 C136.94570192 428.21086582 144.56087627 435.9295301 151.45654297 444.06201172 C153.55292201 446.49590303 155.74317302 448.83335597 157.92919922 451.18701172 C163.17074832 456.94243818 167.96838905 462.9795104 172.70654297 469.15234375 C174.21627922 471.11009524 175.74324181 473.0534302 177.27294922 474.99560547 C217.94979588 526.96225092 237.61909186 584.39806534 237.61669922 650.37451172 C237.61929749 652.08506241 237.61929749 652.08506241 237.62194824 653.83016968 C237.60978399 672.10551809 236.40373942 689.24602877 232.17919922 707.06201172 C231.86468626 708.5136808 231.55079193 709.96548419 231.23779297 711.41748047 C230.37213694 715.03926106 229.34315573 718.52493999 228.17919922 722.06201172 C227.91800293 722.85913574 227.65680664 723.65625977 227.38769531 724.47753906 C218.26029703 751.92021365 204.61423628 776.55109609 185.17919922 798.06201172 C184.38771484 798.97337891 183.59623047 799.88474609 182.78076172 800.82373047 C178.22707153 806.02239725 173.52142947 810.68555925 168.17919922 815.06201172 C167.66647461 815.49239746 167.15375 815.9227832 166.62548828 816.36621094 C141.86367287 837.12760813 113.246025 851.58615402 81.86669922 859.31201172 C80.96918945 859.5341333 80.07167969 859.75625488 79.14697266 859.98510742 C75.83721321 860.75089602 72.51513257 861.42280481 69.17919922 862.06201172 C68.33229523 862.22717285 67.48539124 862.39233398 66.61282349 862.5625 C50.07543342 865.7131205 34.0542919 866.71589128 17.24169922 866.56201172 C16.04774536 866.55647278 14.8537915 866.55093384 13.62365723 866.54522705 C-48.4067768 866.20924007 -107.84920648 852.42793962 -154.82080078 810.06201172 C-155.56974609 809.38654297 -156.31869141 808.71107422 -157.09033203 808.01513672 C-163.39471386 802.00607216 -168.59397259 795.00157422 -173.82080078 788.06201172 C-174.44986328 787.22798828 -175.07892578 786.39396484 -175.72705078 785.53466797 C-197.91065061 754.92757858 -210.14544914 717.92780844 -216.82080078 681.06201172 C-217.156521 679.28093018 -217.156521 679.28093018 -217.49902344 677.46386719 C-222.34088511 651.62565028 -225.55253952 625.38564952 -224.82080078 599.06201172 C-210.6160009 596.44760869 -196.35352184 594.26600401 -182.07080078 592.12451172 C-180.89483337 591.9473764 -179.71886597 591.77024109 -178.50726318 591.58773804 C-164.23045738 589.43736806 -149.95035678 587.34893853 -135.64038086 585.43164062 C-126.9898637 584.25897592 -118.37344166 582.90425599 -109.75830078 581.49951172 C-108.45763672 581.28762207 -107.15697266 581.07573242 -105.81689453 580.85742188 C-103.3124586 580.4486585 -100.80806262 580.03965031 -98.30371094 579.63037109 C-93.35319669 578.82252046 -88.40195358 578.02205352 -83.44580078 577.24951172 C-82.30679321 577.06376587 -82.30679321 577.06376587 -81.14477539 576.87426758 C-75.99035921 576.08249053 -71.03618088 575.96428763 -65.82080078 576.06201172 C-65.80098145 576.69888916 -65.78116211 577.3357666 -65.76074219 577.99194336 C-64.04683153 649.94358845 -64.04683153 649.94358845 -30.43017578 710.96044922 C-15.64553798 722.86783715 -0.36393686 725.38024414 18.17919922 724.06201172 C25.36366188 723.03338166 31.49837094 720.60425182 37.17919922 716.06201172 C37.77345703 715.58892578 38.36771484 715.11583984 38.97998047 714.62841797 C48.12867273 705.84486199 52.95145418 688.16416618 53.46972656 675.70166016 C53.49561311 674.19171503 53.51034592 672.68154613 53.51513672 671.17138672 C53.52351563 670.35270111 53.53189453 669.5340155 53.54052734 668.69052124 C53.55993333 666.06415152 53.56013228 663.43844071 53.55419922 660.81201172 C53.5536554 659.91528748 53.55311157 659.01856323 53.55255127 658.09466553 C53.51514208 644.71624018 52.94918798 631.98153943 49.17919922 619.06201172 C48.96489258 618.2938916 48.75058594 617.52577148 48.52978516 616.734375 C38.78282493 582.50651249 15.05193897 554.46016268 -9.82226562 529.85473633 C-11.58940788 528.10609948 -13.34816694 526.34934181 -15.10595703 524.59130859 C-20.84171721 518.87315666 -26.61614148 513.2756973 -32.82080078 508.06201172 C-33.98526086 507.06508009 -35.14932955 506.0676911 -36.31298828 505.06982422 C-37.44048337 504.10875874 -38.56808894 503.14782285 -39.69580078 502.18701172 C-43.85286767 498.63799839 -47.9665558 495.0552715 -52.00830078 491.37451172 C-55.32163158 488.36386693 -58.71022007 485.49635994 -62.19580078 482.68701172 C-66.75021001 479.00499637 -71.05827643 475.13300814 -75.34204102 471.14624023 C-78.55343485 468.17514421 -81.84689841 465.36254584 -85.25830078 462.62451172 C-90.03942603 458.77897357 -94.51725601 454.68854227 -98.99121094 450.49707031 C-102.27300935 447.44006589 -105.62186743 444.54497065 -109.13330078 441.74951172 C-126.55613213 427.6907429 -144.11806662 411.29485358 -157.84033203 393.60107422 C-159.71529948 391.1972698 -161.68052511 388.89572814 -163.68359375 386.59838867 C-179.70684939 368.13019065 -193.60427588 347.28588917 -203.82080078 325.06201172 C-204.35189453 323.91603516 -204.88298828 322.77005859 -205.43017578 321.58935547 C-212.43808443 305.85768425 -216.89182673 289.99596755 -219.82080078 273.06201172 C-219.96646484 272.23991211 -220.11212891 271.4178125 -220.26220703 270.57080078 C-220.69031259 268.13233463 -221.1031157 265.69188429 -221.50830078 263.24951172 C-221.62778076 262.54640869 -221.74726074 261.84330566 -221.87036133 261.11889648 C-223.95145208 247.91655321 -224.02847348 234.5201333 -224.00830078 221.18701172 C-224.0073642 220.38075348 -224.00642761 219.57449524 -224.00546265 218.74380493 C-223.95175867 197.2841716 -222.43871031 176.74507721 -217.47216797 155.80908203 C-216.87019112 153.27031009 -216.30074646 150.72619653 -215.73486328 148.17919922 C-206.1102609 106.75647482 -180.78072389 70.23061952 -146.82080078 45.06201172 C-145.78181641 44.28986328 -144.74283203 43.51771484 -143.67236328 42.72216797 C-101.99152647 12.85265141 -50.67582375 0.82247024 0 0 Z " fill="#FB4C02" transform="translate(2736.82080078125,629.93798828125)"/>
<path d="M0 0 C93.6124534 0 93.6124534 0 119.14453125 25.0234375 C145.50510339 51.95725728 147.18823108 91.90525789 147.18530273 127.45825195 C147.1874935 130.42869317 147.20573038 133.39876446 147.22460938 136.36914062 C147.25665091 147.11263421 146.81052156 157.38776074 145 168 C144.86456787 168.89178955 144.72913574 169.7835791 144.58959961 170.70239258 C140.68688342 195.7920013 130.56636856 219.61145931 110.3125 235.75 C103.97759468 240.32341379 97.29323259 243.27825016 90 246 C88.83210938 246.45826172 88.83210938 246.45826172 87.640625 246.92578125 C60.37094351 256.92124721 27.07088103 253 0 253 C0 169.51 0 86.02 0 0 Z " fill="#EBF8FE" transform="translate(2002,1101)"/>
<path d="M0 0 C84.5725938 0 84.5725938 0 113.53125 27.39453125 C132.96301068 47.39605034 138.65931757 74.51150556 138.375 101.5625 C138.37101196 102.33903931 138.36702393 103.11557861 138.36291504 103.91564941 C138.19749943 131.55136732 135.40513236 160.83303322 119 184 C118.278125 185.03125 117.55625 186.0625 116.8125 187.125 C101.30142921 204.66366174 78.96931454 208.70460282 57 212 C38.19 212 19.38 212 0 212 C0 142.04 0 72.08 0 0 Z " fill="#EBF8FE" transform="translate(2002,766)"/>
</svg>
